<svg xmlns="http://www.w3.org/2000/svg" viewBox="0 0 960 320" width="960" height="320">
  <!-- 天琴 Lyra 横版组合标识 -->
  <defs>
    <linearGradient id="tile" x1="0" y1="0" x2="1" y2="1">
      <stop offset="0" stop-color="#2b2d58"/>
      <stop offset="0.55" stop-color="#1d1e3e"/>
      <stop offset="1" stop-color="#131330"/>
    </linearGradient>
    <linearGradient id="gold" gradientUnits="userSpaceOnUse" x1="0" y1="412" x2="0" y2="768">
      <stop offset="0" stop-color="#ffe9c2"/>
      <stop offset="1" stop-color="#eec489"/>
    </linearGradient>
    <linearGradient id="star" gradientUnits="userSpaceOnUse" x1="0" y1="156" x2="0" y2="384">
      <stop offset="0" stop-color="#fff6df"/>
      <stop offset="1" stop-color="#f5c977"/>
    </linearGradient>
  </defs>

  <g transform="translate(40 40) scale(0.234375)">
    <rect x="0" y="0" width="1024" height="1024" rx="232" fill="url(#tile)"/>
    <path d="M512 156 C522 232 546 258 622 270 C546 282 522 308 512 384 C502 308 478 282 402 270 C478 258 502 232 512 156 Z" fill="url(#star)"/>
    <circle cx="684" cy="216" r="9" fill="#f3d9a8" opacity="0.9"/>
    <circle cx="352" cy="250" r="7" fill="#f3d9a8" opacity="0.75"/>
    <g fill="none" stroke="url(#gold)" stroke-linecap="round">
      <path d="M446 714 C330 636 318 478 404 424" stroke-width="27"/>
      <path d="M578 714 C694 636 706 478 620 424" stroke-width="27"/>
      <path d="M394 418 H630" stroke-width="25"/>
      <path d="M454 436 V696" stroke-width="11" opacity="0.92"/>
      <path d="M493 436 V696" stroke-width="11"/>
      <path d="M531 436 V696" stroke-width="11"/>
      <path d="M570 436 V696" stroke-width="11" opacity="0.92"/>
    </g>
    <rect x="424" y="704" width="176" height="58" rx="29" fill="url(#gold)"/>
  </g>

  <text x="316" y="176" font-family="'PingFang SC','Microsoft YaHei','Noto Sans SC',sans-serif" font-size="124" font-weight="600" fill="currentColor" letter-spacing="10">天琴</text>
  <text x="322" y="248" font-family="'DM Sans','Segoe UI',system-ui,sans-serif" font-size="46" font-weight="500" fill="currentColor" letter-spacing="18" opacity="0.72">LYRA</text>
</svg>
